<svg xmlns="http://www.w3.org/2000/svg" viewBox="-0.5 -0.5 100 100" id="Fixing-Bugs--Streamline-Dhaka.svg" height="100" width="100"><desc>Fixing Bugs Streamline Illustration: https://streamlinehq.com</desc><g><path d="M61.75521 37.127475a5.26086 5.26086 0 0 0 -0.495 -2.40669c-0.786555 -1.365705 -2.52747 -1.6795349999999998 -4.06296 -1.81368 -8.111565 -0.70785 -43.497629999999994 -0.297 -46.555245 -0.1089 -2.5393499999999998 0.155925 -5.45787 0.577665 -6.831 2.80566 -0.8513999999999999 1.376595 -0.890505 3.1076099999999998 -0.8969400000000001 4.738635 -0.039105 8.9595 -0.29402999999999996 18.428355 0.1089 27.376965000000002a5.25888 5.25888 0 0 0 0.495 2.406195c0.786555 1.3661999999999999 2.526975 1.683 4.06296 1.81368 2.81754 0.24304499999999998 11.560229999999999 0.33858000000000005 20.472209999999997 0.37521q-0.054945 3.77289 -0.012375 7.545285c-6.225615 0 -5.715269999999999 -0.032175 -5.803875 0.012375a9.571814999999999 9.571814999999999 0 0 0 -0.036629999999999996 2.20077c8.984745 0 13.579830000000001 0.0495 20.30292 0 0.012375 -0.77418 -0.0495 -1.33056 -0.0495 -2.18889 -0.036135 0 -3.33729 -0.01188 -7.267094999999999 -0.01188 0.47124 -0.012375 0.9553499999999999 -0.036629999999999996 1.46322 -0.060885 0.036135 -2.38194 0.06039 -5.04207 0.099 -7.484895 8.791694999999999 0 18.04869 -0.00594 9.08127 -0.00594q4.153545 -0.036135 8.307585000000001 -0.28413c2.539845 -0.150975 5.45787 -0.577665 6.831 -2.80566 0.84942 -1.376595 0.887535 -3.1076099999999998 0.89496 -4.74012 0.0396 -8.94663 0.294525 -18.414495 -0.108405 -27.363105Zm-2.781405 24.668325c0 0.36234 0 0.725175 -0.024255000000000002 1.100385H5.501925c-0.265815 -7.013655 -0.030195 -14.355 -0.024255000000000002 -21.318659999999998 0 -1.366695 0.038114999999999996 -2.8165500000000003 0.810315 -3.9664349999999997 1.2483899999999999 -1.86021 3.894165 -2.2190849999999998 6.20334 -2.345805 3.267 -0.17968499999999998 35.012835 -0.48608999999999997 42.25023 0.099 1.390455 0.11187 2.9699999999999998 0.378675 3.67587 1.5117299999999998a4.1085 4.1085 0 0 1 0.4455 2.007225c0.39303 7.4943 0.11682 15.415289999999999 0.11088 22.91256Z" fill="#bbbaf6" stroke-width="1"></path><g><path d="M25.599420000000002 53.52435c-0.35244 -1.365705 -1.318185 -2.1883950000000003 -2.503215 -2.962575a3.878325 3.878325 0 0 0 -3.6134999999999997 -0.5445l-3.94218 4.836645000000001a6.25185 6.25185 0 0 0 4.2075 3.267c2.6319150000000002 0.5672699999999999 5.218785 -0.807345 6.0701849999999995 -2.236905 0.51579 -0.8726849999999999 0.03366 -1.379565 -0.21879 -2.359665Z" fill="#fb9ee6" stroke-width="1"></path><path d="M20.195999999999998 42.278445a9.030285 9.030285 0 0 1 3.5065799999999996 0.38709 2.4928199999999996 2.4928199999999996 0 0 0 -0.90684 -3.022965 3.1185 3.1185 0 0 0 -4.4154 1.29393 1.975545 1.975545 0 0 0 0.07227 1.6928999999999998 17.3745 17.3745 0 0 1 1.7433899999999998 -0.35095499999999996Z" fill="#fb9ee6" stroke-width="1"></path></g><path d="M27.787815 47.98629a10.130175 10.130175 0 0 0 -0.42322499999999996 -1.608255 6.466185 6.466185 0 0 0 -5.381145 -4.075335 9.097605 9.097605 0 0 0 -1.740915 0.036629999999999996 7.84872 7.84872 0 0 0 -4.00257 1.42659c-2.34729 1.8131849999999998 -2.7903149999999997 4.9787099999999995 -2.515095 7.9323749999999995a14.75892 14.75892 0 0 0 1.063755 4.51044l0.1089 -0.02376c2.152755 -2.104245 4.257 -4.135725 6.566175 -6.070679999999999 0.2475 0.367785 1.5755849999999998 1.6335 5.247 5.91327l0.193545 -0.024255000000000002c1.3068 -2.39481 1.413225 -5.32224 0.883575 -8.01702Zm-12.515085000000001 0.35046a0.604395 0.604395 0 1 1 0.604395 0.6048899999999999 0.61776 0.61776 0 0 1 -0.604395 -0.6048899999999999Zm1.051875 4.2926400000000005A0.604395 0.604395 0 1 1 16.929000000000002 52.024499999999996a0.614295 0.614295 0 0 1 -0.604395 0.6048899999999999Zm2.3215500000000002 -6.686955a0.6048899999999999 0.6048899999999999 0 1 1 0.6048899999999999 -0.604395 0.614295 0.614295 0 0 1 -0.6048899999999999 0.604395Zm1.4513399999999999 3.069a0.6048899999999999 0.6048899999999999 0 1 1 0.604395 -0.600435 0.61479 0.61479 0 0 1 -0.6048899999999999 0.60291Zm3.2175 1.0395A0.6048899999999999 0.6048899999999999 0 1 1 23.9184 49.450500000000005a0.61479 0.61479 0 0 1 -0.6039 0.6034050000000001Zm0.205425 -4.667355a0.6048899999999999 0.6048899999999999 0 1 1 0.604395 -0.6048899999999999 0.614295 0.614295 0 0 1 -0.6053850000000001 0.60786Zm2.92644 7.9323749999999995a0.6048899999999999 0.6048899999999999 0 1 1 0.604395 -0.6048899999999999 0.60192 0.60192 0 0 1 -0.6053850000000001 0.60786Zm0.16929000000000002 -5.272245a0.6048899999999999 0.6048899999999999 0 1 1 0.604395 -0.604395 0.61479 0.61479 0 0 1 -0.6053850000000001 0.607365Z" fill="#5e56ef" stroke-width="1"></path><path d="M46.92996 43.23379499999999a23.124914999999998 23.124914999999998 0 0 0 -2.055735 -3.700125c0.9038700000000001 -0.36135 0.5445 -1.6928999999999998 -0.29007 -2.0294999999999996a1.2122549999999999 1.2122549999999999 0 0 0 -1.318185 0.29007 1.1384999999999998 1.1384999999999998 0 0 0 0.30244499999999996 1.72953 23.198175 23.198175 0 0 0 -1.86219 3.78477 11.9295 11.9295 0 0 0 -0.205425 7.037415c0.75735 2.9521800000000002 2.137905 4.876245000000001 3.15612 6.566175a20.938499999999998 20.938499999999998 0 0 0 2.8051649999999997 -6.686955 11.913165 11.913165 0 0 0 -0.532125 -6.99138Z" fill="#31dad7" stroke-width="1"></path><path d="M67.41405 35.506845c-0.91476 -0.76626 -2.2849199999999996 -0.314325 -3.373425 0.16929000000000002 1.197405 -1.417185 2.1883950000000003 -3.808035 1.5345 -5.549939999999999 -0.4994549999999999 -1.3335299999999999 -1.9468349999999999 -2.1285 -3.361545 -2.213145a7.70715 7.70715 0 0 0 -4.05108 1.1246399999999999c2.732895 -2.178 9.79506 -8.186805000000001 12.697245 -10.13364a167.62482 167.62482 0 0 0 -15.659325 8.706555 5.75091 5.75091 0 0 0 -3.1803749999999997 -4.18374c-0.99 -0.46233 -2.23542 -0.60192 -3.15612 0 -0.9296099999999999 0.607365 -1.28205 1.7775450000000002 -1.57212 2.853675 -0.713295 -0.882585 -1.64439 -1.683 -2.7690300000000003 -1.78992a3.2803649999999998 3.2803649999999998 0 0 0 -3.08385 1.814175A3.8511 3.8511 0 0 0 46.99035000000001 31.286475a6.8413949999999994 6.8413949999999994 0 0 0 -0.253935 4.83714 4.43025 4.43025 0 0 0 3.627855 2.962575 5.89941 5.89941 0 0 0 3.2769 -0.942975 13.562999999999999 13.562999999999999 0 0 0 -1.7775450000000002 5.742 7.623 7.623 0 0 0 0.50787 3.700125 4.0768200000000006 4.0768200000000006 0 0 0 2.74527 2.38194 3.39669 3.39669 0 0 0 3.90555 -2.7447749999999997c0.7256699999999999 0.870705 1.50084 1.77408 2.563605 2.15226 2.61756 0.93258 5.81229 -1.8018 5.52618 -4.606965a2.836845 2.836845 0 0 0 -2.178 -2.515095 8.872875 8.872875 0 0 0 2.7447749999999997 -3.54321c0.44946 -1.049895 0.6098399999999999 -2.4695549999999997 -0.26482500000000003 -3.2026499999999998Z" fill="#61b7fc" stroke-width="1"></path><g><path d="M74.37969 19.097595000000002c-1.7052749999999999 -2.27304 -1.64835 -2.218095 -1.7052749999999999 -2.236905 -0.024255000000000002 0 -1.0395 0.6771600000000001 -1.5345 1.00386a25.773165 25.773165 0 0 0 1.7532899999999998 2.357685Z" fill="#fbdd50" stroke-width="1"></path><path d="M90.546885 32.737815c-2.83932 -3.9006 -7.0983 -11.1375 -11.814165000000001 -11.1375 -0.78606 -1.1384999999999998 -1.7325 -2.2769999999999997 -2.515095 -3.361545 -0.07622999999999999 -0.10593 -0.13464 -0.17720999999999998 -0.37521 -0.01188 -1.7092349999999998 1.173645 -3.39768 2.406195 -5.09058 3.603105 0.761805 1.148895 1.620135 2.40669 2.406195 3.59172 -1.3543200000000002 2.466585 -0.08118 5.100975 1.40283 7.412624999999999 2.8215 4.3975800000000005 6.953265 10.532115000000001 10.701405 15.514289999999999L96.193845 40.491q-2.8294200000000003 -3.86496 -5.64696 -7.753185Z" fill="#fbdd50" stroke-width="1"></path></g><path d="M82.10664000000001 36.861165a2.614095 2.614095 0 0 0 3.6630000000000003 -1.7532899999999998 1.490445 1.490445 0 0 0 -0.64053 -1.608255 2.2136400000000003 2.2136400000000003 0 0 0 -3.192255 0.3267Z" fill="#31dad7" stroke-width="1"></path><path d="M86.157225 34.382205c-2.439855 -0.52668 -2.98188 -0.526185 -3.28878 -0.62865 -0.26631 1.24542 -0.459855 2.46708 -0.629145 3.72438l-0.036135 0.036135a6.4305449999999995 6.4305449999999995 0 0 1 -2.55123 -2.7447749999999997c-0.5365800000000001 -1.29294 -0.22374 -2.351745 0.785565 -3.3130349999999997a2.76111 2.76111 0 0 1 3.9783150000000003 -0.060885 5.2093799999999995 5.2093799999999995 0 0 1 1.7775450000000002 2.92644Z" fill="#5e56ef" stroke-width="1"></path><path d="M79.91775 32.0265a0.9607950000000001 0.9607950000000001 0 0 1 -0.41134499999999996 -1.2696749999999999 1.32264 1.32264 0 0 1 1.089 -0.8464499999999999 1.059795 1.059795 0 0 1 1.089 0.773685 3.84021 3.84021 0 0 0 -1.7666549999999999 1.34244Z" fill="#31dad7" stroke-width="1"></path><path d="M85.032585 31.552785a4.574295 4.574295 0 0 0 -1.2573 -0.9796050000000001 2.995245 2.995245 0 0 0 -1.886445 -0.24156 1.39788 1.39788 0 0 0 -1.52361 -0.7137899999999999c-1.101375 0.245025 -1.688445 1.7325 -0.8464499999999999 2.4913350000000003a2.995245 2.995245 0 0 0 -0.0495 2.99871 6.869115 6.869115 0 0 0 2.574 2.6601299999999997c0.222255 0.123255 0.495 -0.02772 0.495 -0.4455a2.8546650000000002 2.8546650000000002 0 0 0 3.54321 -2.660625 0.36333 0.36333 0 0 0 0.374715 -0.435105 4.75497 4.75497 0 0 0 -1.4236199999999999 -2.67399Zm-4.851 -1.1731500000000001a0.86229 0.86229 0 0 1 1.1384999999999998 0.15741 3.6134999999999997 3.6134999999999997 0 0 0 -1.427085 1.1122649999999998 0.9108 0.9108 0 0 1 0.29056499999999996 -1.2696749999999999Zm5.151465 5.091075a2.28393 2.28393 0 0 1 -2.684385 1.281555c0.043559999999999995 -0.271755 0.18117 -1.3736249999999999 0.4455 -2.6235 0.09405 0.017325 1.203345 0.17226 2.406195 0.4356a1.654785 1.654785 0 0 1 -0.16533 0.906345Zm-2.38194 -1.995345a0.304425 0.304425 0 0 0 -0.37521 0.20592c-0.249975 1.16127 -0.41035499999999997 2.2671 -0.58014 3.373425a5.967225 5.967225 0 0 1 -1.74141 -1.76517 2.6522099999999997 2.6522099999999997 0 0 1 -0.29007 -2.732895c0.664785 -1.2063149999999998 1.9542599999999999 -1.99485 3.3254099999999998 -1.5117299999999998a3.207105 3.207105 0 0 1 1.124145 0.773685 4.879214999999999 4.879214999999999 0 0 1 1.40283 2.18889c-1.726065 -0.363825 -2.6007299999999995 -0.44649 -2.863575 -0.532125Z" fill="#000000" stroke-width="1"></path><path d="M96.460155 40.3425c-9.24858 -12.980385 -9.626265 -13.54914 -11.6325 -15.6717 -1.584 -1.677555 -3.62736 -3.304125 -5.92515 -3.37392 -0.689535 -0.97911 -1.4548050000000001 -1.892385 -2.15226 -2.853675 -0.203445 -0.27967499999999995 -0.41085 -0.73557 -0.8345699999999999 -0.594 -0.14454 0.0495 -0.07028999999999999 0.015345 -1.378575 0.931095 -0.47173499999999996 -0.62865 -0.947925 -1.27512 -1.42659 -1.898325 -0.131175 -0.17077499999999998 -0.253935 -0.36283499999999996 -0.508365 -0.314325 -0.22869 0.056925 -0.40491 0.25641 -1.608255 1.0395a0.297 0.297 0 0 0 -0.108405 0.41085c0.5073749999999999 0.761805 1.0395 1.4874749999999999 1.620135 2.20077l-1.886445 1.3300649999999998a0.30987 0.30987 0 0 0 -0.1089 0.41134499999999996c0.7712100000000001 1.150875 1.5478649999999998 2.29779 2.30967 3.458565 -1.268685 2.495295 -0.06633 5.110874999999999 1.40283 7.425 2.518065 3.969405 6.83595 10.327185 9.927225 14.489145 0.28808999999999996 0.388575 0.58311 0.7722 0.870705 1.16127a0.303435 0.303435 0 0 0 0.5563800000000001 -0.08464500000000001c0.800415 -0.45787500000000003 10.82664 -7.587855 10.894950000000001 -7.690815000000001a0.326205 0.326205 0 0 0 -0.01188 -0.3762Zm-24.91038 -22.369545000000002c0.9038700000000001 -0.580635 0.9405 -0.639045 1.051875 -0.713295 0.024255000000000002 0.0495 1.3944150000000002 1.84437 1.427085 1.886445 -0.35046 0.242055 -0.701415 0.495 -1.051875 0.749925 -0.50886 -0.629145 -0.9796050000000001 -1.2696749999999999 -1.427085 -1.9230749999999999Zm-0.386595 3.9303000000000003c1.093455 -0.76329 4.885155 -3.3857999999999997 4.885155 -3.3857999999999997s1.36323 1.75032 2.139885 2.8294200000000003c-1.885455 0.2475 -4.02534 1.99485 -5.04207 3.5065799999999996 -0.66528 -0.97911 -1.318185 -1.958715 -1.9829700000000001 -2.9502ZM85.2885 47.87739c-2.68686 -3.60261 -5.84793 -8.10414 -9.685665 -14.014935 -2.36016 -3.634785 -4.95 -7.682895 0.634095 -11.12265 1.7765549999999999 -1.094445 3.259575 -1.1221649999999999 5.1579 -0.086625 2.376 1.29492 4.46094 4.0095 6.03405 6.17859 1.2107700000000001 1.66815 8.10216 11.2365 8.379855 11.621115 -0.06682500000000001 0.12969 -9.33867 6.73398 -10.520235 7.424505Z" fill="#000000" stroke-width="1"></path><path d="M71.01765 19.170360000000002a0.309375 0.309375 0 0 0 0.1089 -0.41134499999999996 0.273735 0.273735 0 0 0 -0.41085 -0.108405 169.047945 169.047945 0 0 0 -15.308864999999999 8.488755000000001c-0.9405 -3.794175 -5.405894999999999 -5.667255 -7.2918449999999995 -3.446685a5.38362 5.38362 0 0 0 -0.9672299999999999 1.97109 4.093649999999999 4.093649999999999 0 0 0 -2.890305 -1.4849999999999999A3.618945 3.618945 0 0 0 41.2335 26.037a4.14711 4.14711 0 0 0 3.3377850000000002 6.16671c-1.34244 0 -32.999669999999995 0.2475 -33.94314 0.30244499999999996 -4.843575 0.292545 -7.767045 1.5453899999999998 -8.019 6.421139999999999 -0.08415 1.6335 -0.036629999999999996 3.264525 -0.0495 4.897035000000001 -0.017325 2.38095 -0.3069 22.94226 0.326205 25.58754a3.4684649999999997 3.4684649999999997 0 0 0 2.5517250000000002 2.49084 16.6815 16.6815 0 0 0 4.099095 0.48361499999999996c1.4147100000000001 0.06138 17.449244999999998 0.26631 18.186795 0.26631 -0.024255000000000002 1.82556 -0.01188 6.457275 -0.01188 6.9408900000000004 -6.113745000000001 0 -5.45193 -0.029699999999999997 -5.3955 0a0.35194499999999995 0.35194499999999995 0 0 0 -0.399465 0.314325 9.0585 9.0585 0 0 0 -0.036135 2.20077 0.308385 0.308385 0 0 0 0.30244499999999996 0.30244499999999996c2.962575 0 18.900090000000002 0.01188 20.30292 0.01188a0.29997 0.29997 0 0 0 0.30195 -0.30244499999999996c0.006435 -0.7256699999999999 -0.042075 -1.450845 -0.0495 -2.1883950000000003a0.303435 0.303435 0 0 0 -0.2178 -0.29056499999999996c-0.15147 -0.016335000000000002 0.306405 -0.01188 -5.57469 -0.01188 0.024255000000000002 -2.09187 0.08464500000000001 -6.72309 0.08464500000000001 -6.9408900000000004 4.72032 0 14.11047 0.017325 18.117 -0.374715 2.00772 -0.198 4.158 -0.67023 5.52618 -2.178 1.6335 -1.797345 1.46322 -4.371345 1.4751 -6.831 0.00693 -1.390455 0.08464500000000001 -10.362824999999999 0.099 -13.47093 2.9997 0.305415 5.820209999999999 -2.89179 5.030685 -5.6345849999999995a3.235815 3.235815 0 0 0 -1.7532899999999998 -2.06811 8.64171 8.64171 0 0 0 2.55123 -3.700125c0.67617 -2.0364299999999997 -0.17622 -3.40659 -1.5478649999999998 -3.6036a3.8303100000000003 3.8303100000000003 0 0 0 -1.683 0.193545c0.87417 -1.34046 1.5458850000000002 -3.38085 0.99 -4.92129 -0.64647 -1.797345 -2.93238 -3.069 -5.81625 -2.213145 4.1377049999999995 -3.384315 9.04167 -7.421535 10.998405 -8.716455000000002ZM3.267 38.96541c0.07325999999999999 -1.4147100000000001 0.363825 -2.86506 1.378575 -3.9060449999999998 1.739925 -1.788435 4.957425000000001 -1.9408949999999998 7.494795 -2.007225 2.8665450000000003 -0.07474499999999999 32.856120000000004 -0.24156 34.10055 -0.24156a7.293825 7.293825 0 0 0 -0.1089 1.92258c-1.97109 -0.024255000000000002 -33.363 0.193545 -34.402499999999996 0.27819000000000005 -1.934955 0.15741 -4.19166 0.53559 -5.477670000000001 2.15226C4.9005 38.8575 5.18463 41.382 5.175225 44.22528c-0.019305 5.9597999999999995 -0.18414 13.059090000000001 0.036629999999999996 18.356085 -0.6771600000000001 0 -1.3543200000000002 -0.01188 -2.0196 0 -0.136125 -4.220865 0.005444999999999999 -22.327965 0.07474499999999999 -23.615955000000003Zm48.429315 7.425c0.61083 3.04227 3.137805 4.53123 5.284125 3.6882449999999998a3.974355 3.974355 0 0 0 1.78992 -1.4147100000000001c0 1.100385 -0.0495 12.213135 -0.1089 13.94217H5.791499999999999c-0.193545 -5.35689 -0.10196999999999999 -10.72566 -0.0495 -16.094925 0.05643 -5.65191 -0.07425 -6.35778 0.29007 -7.62993 0.9157500000000001 -3.19671 4.905945 -3.28383 8.23482 -3.361545 0.48262499999999997 -0.011385 28.850085 -0.21581999999999998 31.923540000000003 -0.15741 0.495 2.5244999999999997 2.475 4.04415 4.40154 4.05108A5.6925 5.6925 0 0 0 52.9155 38.8575c-1.322145 2.708145 -1.61073 5.593500000000001 -1.221165 7.532415Zm-9.52875 33.808499999999995c0.012375 0.520245 0.036135 1.051875 0.036135 1.584 -2.3334300000000003 0.012375 -18.041265000000003 0 -19.734164999999997 0a8.91 8.91 0 0 1 0.036135 -1.608255c6.37362 0.00099 19.60398 0.025244999999999997 19.659914999999998 0.025244999999999997Zm-13.8105 -7.56954c2.6967600000000003 0.01188 5.3955 0.01188 8.089785 0.024255000000000002 -0.024255000000000002 1.789425 -0.08464500000000001 6.3855 -0.096525 6.892379999999999 -1.844865 0.105435 -4.974254999999999 0.036135 -8.00514 0.036135 -0.031185 -2.507175 -0.001485 -6.616169999999999 0.010889999999999999 -6.95178ZM61.561665000000005 64.845c-0.01287 2.47797 -0.27918 4.4975700000000005 -2.43045 5.742 -1.8003149999999999 1.04247 -4.01445 1.114245 -6.046425 1.22166 -7.60221 0.40194 -10.453905 0.142065 -10.629135 0.22968000000000002 -0.41085 0 -22.01958 -0.054945 -25.695945000000002 -0.1089 -8.476875 -0.124245 -10.904355 -0.174735 -12.261645 -1.18503 -1.223145 -0.9108 -1.1127600000000002 -2.429955 -1.18503 -4.014945 -0.037125 -0.822195 -0.096525 -3.168 -0.108405 -3.5184599999999997h58.38128999999999c-0.024255000000000002 0.53163 -0.021285 1.089495 -0.024255000000000002 1.633995Zm0.024255000000000002 -2.2492799999999997h-2.3215500000000002c0.018314999999999998 -0.47322 0.108405 -14.200065 0.108405 -14.510925a5.05395 5.05395 0 0 0 2.29779 1.62063c-0.02574 5.003955 -0.02475 3.34818 -0.08464500000000001 12.888314999999999Zm-3.639735 -33.77385a0.29997 0.29997 0 0 0 0.36283499999999996 0.47173499999999996c1.56123 -0.855855 3.4848 -1.517175 5.2237350000000005 -0.77418a3.2175 3.2175 0 0 1 1.656765 1.4874749999999999c0.792 1.596375 -0.193545 4.081770000000001 -1.366695 5.4539100000000005a0.30096 0.30096 0 0 0 0.36283499999999996 0.47124c1.025145 -0.4653 2.89971 -1.089 3.43431 0.37521 0.43857 1.19988 -0.32967 2.743785 -1.051875 3.79665a8.293725 8.293725 0 0 1 -1.77804 1.874565 0.32521500000000003 0.32521500000000003 0 0 0 -0.145035 0.30195 0.293535 0.293535 0 0 0 0.2178 0.253935 2.459655 2.459655 0 0 1 1.789425 1.584c0.873675 2.3522399999999997 -1.5622200000000002 5.181165 -4.0129649999999994 5.134634999999999 -1.727055 -0.032670000000000005 -2.6037 -1.410255 -3.399165 -2.244825a0.31383 0.31383 0 0 0 -0.47173499999999996 0.0495c-0.012375 0.024255000000000002 -0.024255000000000002 0.06039 -0.036135 0.08464500000000001a3.0195 3.0195 0 0 1 -4.54707 2.1285c-3.1848300000000003 -1.97703 -2.17206 -7.72893 -0.277695 -10.955340000000001a0.30195 0.30195 0 0 0 -0.41134499999999996 -0.41134499999999996 6.35481 6.35481 0 0 1 -2.574 0.89496c-2.794275 0.18216 -5.385104999999999 -2.9898 -3.639735 -7.400745000000001 0.095535 -0.242055 -0.23958 -0.479655 -0.4455 -0.33858000000000005a3.587265 3.587265 0 0 1 -5.17572 -1.438965 3.68973 3.68973 0 0 1 -0.07227 -2.93832 3.106125 3.106125 0 0 1 2.3334300000000003 -1.86219c1.29393 -0.181665 2.387385 0.757845 3.14424 1.6928999999999998a0.30591 0.30591 0 0 0 0.50787 -0.13266 6.811694999999999 6.811694999999999 0 0 1 0.810315 -2.055735c1.5186600000000001 -2.223045 5.827635 -0.40639499999999995 6.517665 3.3857999999999997a0.305415 0.305415 0 0 0 0.4455 0.18117c5.21235 -3.224925 9.565875 -5.635575 12.515085000000001 -7.110180000000001 -0.66627 0.51678 -9.121364999999999 7.4066849999999995 -9.91683 8.038305000000001Z" fill="#000000" stroke-width="1"></path><path d="M51.476535 31.081049999999998a0.30096 0.30096 0 0 0 0.15741 0.580635 2.35125 2.35125 0 0 1 2.793285 1.3661999999999999 2.4690600000000003 2.4690600000000003 0 0 1 -0.096525 1.9834649999999998c-0.11385 0.322245 0.372735 0.594 0.5445 0.253935a3.01356 3.01356 0 0 0 0.193545 -2.20077 2.9071350000000002 2.9071350000000002 0 0 0 -3.592215 -1.9834649999999998Z" fill="#000000" stroke-width="1"></path><path d="M55.733039999999995 43.330815a0.30393 0.30393 0 0 0 0.20592 0.374715 0.310365 0.310365 0 0 0 0.374715 -0.2178c0.921195 -2.41164 3.798135 -2.178 4.2075 -0.30195a0.31284 0.31284 0 0 0 0.374715 0.217305 0.304425 0.304425 0 0 0 0.20592 -0.374715c-0.49549499999999996 -2.30274 -4.170375 -2.8655549999999996 -5.36877 0.30244499999999996Z" fill="#000000" stroke-width="1"></path><path d="M60.824115 37.6695c0.326205 0.206415 0.6281549999999999 -0.313335 0.30244499999999996 -0.51975A2.840805 2.840805 0 0 1 59.894999999999996 34.358445a0.327195 0.327195 0 0 0 -0.205425 -0.37521 0.31383 0.31383 0 0 0 -0.37521 0.20592 3.3778799999999998 3.3778799999999998 0 0 0 1.50975 3.480345Z" fill="#000000" stroke-width="1"></path><path d="M49.348530000000004 46.934414999999994a7.67943 7.67943 0 0 1 -1.318185 -0.0495 12.73437 12.73437 0 0 0 -1.46322 -5.0786999999999995 2.93436 2.93436 0 0 1 0.931095 -0.459855 0.30195 0.30195 0 0 0 -0.16929000000000002 -0.58014 3.681315 3.681315 0 0 0 -1.051875 0.50787 17.4141 17.4141 0 0 0 -0.99 -1.64439 1.3365 1.3365 0 0 0 0.2178 -1.62063 1.490445 1.490445 0 0 0 -2.74527 0.06039 1.45926 1.45926 0 0 0 0.39897000000000005 1.5478649999999998 18.754065 18.754065 0 0 0 -1.003365 1.886445c-0.490545 -0.16335 -0.99594 -0.383625 -1.46322 -0.594a0.30294 0.30294 0 0 0 -0.41134499999999996 0.1089 0.297 0.297 0 0 0 0.1089 0.41085c0.495 0.22968000000000002 1.00386 0.4356 1.5117299999999998 0.61677a11.409255 11.409255 0 0 0 -1.1384999999999998 5.030685 4.665375 4.665375 0 0 0 -1.450845 -0.099 0.30244499999999996 0.30244499999999996 0 0 0 0 0.6048899999999999 4.184234999999999 4.184234999999999 0 0 1 1.46322 0.12078 14.940585 14.940585 0 0 0 1.209285 5.054445 7.8764400000000006 7.8764400000000006 0 0 0 -1.934955 1.028115 0.314325 0.314325 0 0 0 -0.1089 0.41085 0.297 0.297 0 0 0 0.41134499999999996 0.1089 7.2309600000000005 7.2309600000000005 0 0 1 1.87407 -0.99c0.18216 0.36432 0.549945 1.1568150000000001 1.0395 1.995345 0.65835 1.12563 1.058805 1.60875 1.100385 1.717155a0.30987 0.30987 0 0 0 0.5563800000000001 0.07227 23.84712 23.84712 0 0 0 1.9829700000000001 -3.917925 4.2876900000000004 4.2876900000000004 0 0 1 1.24542 0.88308 0.297 0.297 0 1 0 0.42322499999999996 -0.42322499999999996 4.546575 4.546575 0 0 0 -1.462725 -1.016235 15.189074999999999 15.189074999999999 0 0 0 0.9187200000000001 -5.114835 10.368765 10.368765 0 0 0 1.29393 0.0495 0.30096 0.30096 0 0 0 0.30244499999999996 -0.30244499999999996 0.27621 0.27621 0 0 0 -0.277695 -0.324225Zm-7.03791 -4.3065a19.59012 19.59012 0 0 1 1.427085 -2.80566h0.145035c0.06039 2.00772 0.42322499999999996 14.982660000000001 0.4455 15.9984 -2.5626149999999996 -3.5248950000000003 -3.961485 -8.717939999999999 -2.01762 -13.191255Zm2.104245 -3.31353c-0.299475 0 -1.095435 -0.11533500000000001 -1.1127600000000002 -0.7469549999999999 -0.012375 -0.442035 0.28462499999999996 -0.910305 1.03059 -0.78012a0.806355 0.806355 0 0 1 0.761805 0.875655c0.026234999999999998 0.45639 -0.22968000000000002 0.652905 -0.679635 0.652905Zm0.51975 16.57854c-0.06039 -2.04336 -0.41085 -14.994045 -0.4455 -15.961770000000001a1.7631899999999998 1.7631899999999998 0 0 0 0.253935 -0.024255000000000002A19.438650000000003 19.438650000000003 0 0 1 46.02312 42.075a10.791 10.791 0 0 1 1.2696749999999999 3.579345c0.594495 3.608055 -0.5761799999999999 7.081965 -2.35818 10.240065000000001Z" fill="#000000" stroke-width="1"></path><path d="M29.940569999999997 50.81571a0.305415 0.305415 0 0 0 -0.47173499999999996 -0.06039c-0.373725 0.340065 -0.73755 0.6771600000000001 -1.100385 1.01574a15.735555 15.735555 0 0 0 -0.594 -5.163345 14.124329999999999 14.124329999999999 0 0 1 1.2573 -1.5117299999999998c0.20889 0.20889 1.22364 1.4355 1.366695 1.62063a0.29402999999999996 0.29402999999999996 0 0 0 0.42322499999999996 0 0.30294 0.30294 0 0 0 0 -0.42322499999999996c-0.27819000000000005 -0.35095499999999996 -0.5563800000000001 -0.689535 -0.8464499999999999 -1.028115 -0.520245 -0.60687 -0.663795 -0.8444699999999999 -0.9434699999999999 -0.822195 -0.21681 0.017325 -0.374715 0.2178 -0.51975 0.36283499999999996a12.855644999999999 12.855644999999999 0 0 0 -0.9796050000000001 1.1607750000000001 6.754275 6.754275 0 0 0 -3.4461899999999996 -3.4100550000000003 2.808135 2.808135 0 0 0 -1.40283 -3.3254099999999998 3.486285 3.486285 0 0 0 -4.2075 0.99 2.437875 2.437875 0 0 0 -0.39897000000000005 2.285415 6.193935 6.193935 0 0 0 -3.84516 3.373425c-0.372735 -0.45837 -0.38907 -0.50391 -0.89496 -1.051875 -0.145035 -0.15741 -0.30244499999999996 -0.374715 -0.5445 -0.38709 -0.23017500000000002 -0.01188 -0.36184499999999997 0.146025 -0.495 0.30244499999999996 -0.637065 0.7424999999999999 -0.40886999999999996 0.45342 -1.30581 1.559745a0.31383 0.31383 0 0 0 0 0.42322499999999996 0.29402999999999996 0.29402999999999996 0 0 0 0.42322499999999996 0c0.33115500000000003 -0.43362 1.303335 -1.55727 1.3661999999999999 -1.620135a2.24235 2.24235 0 0 1 0.2178 0.253935 14.065425 14.065425 0 0 1 0.9553499999999999 1.1607750000000001 11.88396 11.88396 0 0 0 -0.50787 5.284125c-0.36283499999999996 -0.33858000000000005 -0.739035 -0.687555 -1.1127600000000002 -1.02762a0.30491999999999997 0.30491999999999997 0 0 0 -0.47124 0.06039 13.44618 13.44618 0 0 0 -1.148895 2.09187 0.300465 0.300465 0 1 0 0.51975 0.30244499999999996 13.292235 13.292235 0 0 1 0.9434699999999999 -1.7775450000000002c0.4455 0.39897000000000005 0.888525 0.80388 1.31769 1.221165 0.012375 0.01188 0.036629999999999996 0.024255000000000002 0.0495 0.036135a13.64319 13.64319 0 0 0 0.99 3.6630000000000003c0.091575 0.20493 0.4554 0.161865 0.580635 0.036629999999999996 0.12474 -0.099 0.377685 -0.396 0.641025 -0.629145a6.4552950000000004 6.4552950000000004 0 0 0 9.746055 0.99 3.389265 3.389265 0 0 0 0.66528 -0.89496c0.1089 0.13266 0.215325 0.25542 0.326205 0.38709a0.53757 0.53757 0 0 0 0.6771600000000001 -0.08464500000000001 9.912374999999999 9.912374999999999 0 0 0 1.100385 -3.4947c0.090585 -0.09009 0.86427 -0.819225 1.34244 -1.2459149999999999a12.078 12.078 0 0 1 0.9434699999999999 1.7775450000000002 0.30294 0.30294 0 0 0 0.41085 0.1089 0.30789 0.30789 0 0 0 0.1089 -0.41085 13.542705000000002 13.542705000000002 0 0 0 -1.13553 -2.0992949999999997Zm-11.076614999999999 -10.147499999999999a2.9051549999999997 2.9051549999999997 0 0 1 3.361545 -0.99 2.205225 2.205225 0 0 1 1.30581 2.612115 8.91297 8.91297 0 0 0 -4.885155 -0.024255000000000002 1.688445 1.688445 0 0 1 0.2178 -1.5958800000000002Zm4.7025 16.711695000000002a5.835554999999999 5.835554999999999 0 0 1 -7.364115 -2.0196c2.3151149999999996 -2.2468049999999997 3.552615 -3.361545 5.2237350000000005 -4.8015 0.02277 0.027225 2.250765 2.416095 4.3065 4.8128850000000005a4.118895 4.118895 0 0 1 -2.164635 2.010195Zm3.1798800000000003 -1.74141c-0.108405 -0.13266 -0.22968000000000002 -0.265815 -0.33858000000000005 -0.39897000000000005 -0.3465 -0.42569999999999997 -4.553999999999999 -5.06286 -4.69161 -5.259869999999999a0.304425 0.304425 0 0 0 -0.47173499999999996 -0.060885c-2.37006 1.99485 -5.620725 5.0985000000000005 -6.311744999999999 5.841a16.03305 16.03305 0 0 1 -0.88308 -7.171065c0.309375 -2.369565 1.46322 -4.36293 3.627855 -5.30838a9.447569999999999 9.447569999999999 0 0 1 3.4461899999999996 -0.701415 6.0701849999999995 6.0701849999999995 0 0 1 3.011085 0.652905 6.223635 6.223635 0 0 1 2.92644 3.168 9.63963 9.63963 0 0 1 0.48361499999999996 1.849815c0.5534100000000001 3.1625550000000002 0.057420000000000006 5.7895199999999996 -0.79695 7.390845Z" fill="#000000" stroke-width="1"></path><path d="M89.78508 37.139354999999995c-1.851795 -0.77022 -3.72438 -1.52361 -5.598945 -2.2492799999999997 0.181665 -1.172655 0.784575 -5.23611 0.919215 -6.082065 0.059895 -0.37521 -0.528165 -0.48312 -0.580635 -0.1089 -0.28017 1.9983149999999998 -0.604395 3.9783150000000003 -0.90684 5.97366 -1.29393 -0.495 -5.82417 -2.1413699999999998 -6.7958549999999995 -2.4547049999999997a0.30987 0.30987 0 0 0 -0.39897000000000005 0.145035 0.30244499999999996 0.30244499999999996 0 0 0 0.145035 0.39897000000000005c2.31858 0.8415 4.655475 1.64439 6.965145 2.52747 -0.12078 0.80982 -0.627165 4.135725 -0.761805 4.98168 -0.059399999999999994 0.37521 0.528165 0.48312 0.580635 0.1089 0.22572 -1.62261 0.495 -3.252645 0.73755 -4.8732750000000005 0.870705 0.33858000000000005 4.486185 1.78992 5.4291599999999995 2.18889 0.36283499999999996 0.122265 0.61677 -0.41035499999999997 0.26631 -0.5563800000000001Z" fill="#fb9ee6" stroke-width="1"></path></g></svg>