<svg viewBox="0 0 400 400" xmlns="http://www.w3.org/2000/svg" id="App-Module-2--Streamline-Ux.svg" height="400" width="400"><desc>App Module 2 Streamline Illustration: https://streamlinehq.com</desc><path d="M40 217.236a160 160 0 1 0 320 0 160 160 0 1 0 -320 0Z" fill="#daedf7" stroke="#daedf7" stroke-width="1"></path><path d="M255.056 62.42 86.004 184.308" fill="none" stroke="#adc4d9" stroke-linejoin="round" stroke-width="1"></path><path d="m86.004 184.308 229.044 -3.8" fill="none" stroke="#adc4d9" stroke-linejoin="round" stroke-width="1"></path><path d="m128.628 77.344 163.768 85.664" fill="none" stroke="#adc4d9" stroke-linejoin="round" stroke-width="1"></path><path d="M128.628 77.344 86.004 184.308" fill="none" stroke="#adc4d9" stroke-linejoin="round" stroke-width="1"></path><path d="m255.056 62.42 59.992 118.088" fill="none" stroke="#adc4d9" stroke-linejoin="round" stroke-width="1"></path><path d="m128.628 77.344 126.428 -14.924" fill="none" stroke="#adc4d9" stroke-linejoin="round" stroke-width="1"></path><path d="M162 347.236h76v34h-76z" fill="#87898c" stroke-width="1"></path><path d="m162 381.236 0 -34 76 0 0 34" fill="none" stroke="#45413c" stroke-linecap="round" stroke-linejoin="round" stroke-width="1"></path><path d="m200 369.236 0 12" fill="none" stroke="#45413c" stroke-linecap="round" stroke-linejoin="round" stroke-width="1"></path><path d="m285.22 274.576 -6.136 20.176a8.984 8.984 0 0 1 -6.368 6.252c-22.536 5.172 -0.652 -66.428 -69.72 -69.68 -1.012 -0.048 -2 0 -2.996 0s-2 -0.064 -2.996 0c-69.12 3.252 -47.168 74.86 -69.72 69.676a8.968 8.968 0 0 1 -6.368 -6.248L114.8 274.576a4 4 0 0 0 -4.728 -2.736l-15.628 3.6a4 4 0 0 0 -2.928 5.064l6.304 20.712a33.392 33.392 0 0 0 27.148 23.728 32.696 32.696 0 0 0 37.02 -31.688l0.032 -0.024v74h20.096a16 16 0 0 0 15.324 -11.4l2.56 -8.596 2.58 8.6a16 16 0 0 0 15.324 11.4H238v-74l0.032 0.024a32.7 32.7 0 0 0 37.02 31.692 33.412 33.412 0 0 0 27.148 -23.732l6.304 -20.712a4 4 0 0 0 -2.928 -5.064l-15.628 -3.6a4 4 0 0 0 -4.728 2.732Z" fill="#87898c" stroke-width="1"></path><path d="M138.128 292.32c6.436 -18.32 7.472 -58.576 58.876 -60.996 1.012 -0.048 2 0 2.996 0s2 -0.064 2.996 0C254.4 233.744 255.424 274 261.872 292.32a64.988 64.988 0 0 0 -123.728 0" fill="#87898c" stroke-width="1"></path><path d="m301.808 263.852 -8.692 -4.172 7.228 -11.848a4.824 4.824 0 0 1 6.436 -2.26h0A4.82 4.82 0 0 1 309.04 252Z" fill="#ffdb94" stroke="#45413c" stroke-linecap="round" stroke-linejoin="round" stroke-width="1"></path><path d="m302.62 255.132 31.38 -9.476a3.344 3.344 0 0 1 3.376 3.344h0c0 1.404 -0.648 3.36 -1.972 3.84l-26.348 16.8 -0.916 6.4 -19.544 -4.544 1.072 -5.456a15.448 15.448 0 0 1 12.952 -10.908Z" fill="#ffdb94" stroke="#45413c" stroke-linecap="round" stroke-linejoin="round" stroke-width="1"></path><path d="m98.4 263.852 8.68 -4.172 -7.232 -11.848a4.82 4.82 0 0 0 -6.432 -2.26h0A4.82 4.82 0 0 0 91.156 252Z" fill="#ffdb94" stroke="#45413c" stroke-linecap="round" stroke-linejoin="round" stroke-width="1"></path><path d="M97.452 255.076 66.084 245.6a3.34 3.34 0 0 0 -3.372 3.344h0c0 1.408 0.644 3.36 1.968 3.84l26.352 16.8L92 276l19.468 -4.504L110.4 266a15.44 15.44 0 0 0 -12.948 -10.924Z" fill="#ffdb94" stroke="#45413c" stroke-linecap="round" stroke-linejoin="round" stroke-width="1"></path><path d="m285.22 274.576 -6.136 20.176a8.984 8.984 0 0 1 -6.368 6.252c-22.536 5.172 -0.652 -66.428 -69.72 -69.68 -1.012 -0.048 -2 0 -2.996 0s-2 -0.064 -2.996 0c-69.12 3.252 -47.168 74.86 -69.72 69.676a8.968 8.968 0 0 1 -6.368 -6.248L114.8 274.576a4 4 0 0 0 -4.728 -2.736l-15.628 3.6a4 4 0 0 0 -2.928 5.064l6.304 20.712a33.392 33.392 0 0 0 27.148 23.728 32.696 32.696 0 0 0 37.02 -31.688l0.032 -0.024v74h20.096a16 16 0 0 0 15.324 -11.4l2.56 -8.596 2.58 8.6a16 16 0 0 0 15.324 11.4H238v-74l0.032 0.024a32.7 32.7 0 0 0 37.02 31.692 33.412 33.412 0 0 0 27.148 -23.732l6.304 -20.712a4 4 0 0 0 -2.928 -5.064l-15.628 -3.6a4 4 0 0 0 -4.728 2.732Z" fill="none" stroke="#45413c" stroke-linecap="round" stroke-linejoin="round" stroke-width="1"></path><path d="M214 241.256v-14h-28v14c-2.188 9.484 -4.372 16.888 -1.292 26.12L200 323.256l15.292 -55.88c3.08 -9.232 0.896 -16.636 -1.292 -26.12Z" fill="#ffffff" stroke="#45413c" stroke-linecap="round" stroke-linejoin="round" stroke-width="1"></path><path d="m214 241.256 -14 14 -14 -14 0 -22 28 0 0 22z" fill="#ffdb94" stroke-width="1"></path><path d="M186 233.2a48.692 48.692 0 0 0 28 0v-13.944h-28Z" fill="#ffbe3d" stroke-width="1"></path><path d="m214 241.256 -14 14 -14 -14 0 -22 28 0 0 22z" fill="none" stroke="#45413c" stroke-linecap="round" stroke-linejoin="round" stroke-width="1"></path><path d="m238 351.236 0 -57.976" fill="#87898c" stroke="#45413c" stroke-linecap="round" stroke-linejoin="round" stroke-width="1"></path><path d="m200 347.236 0 -23.98" fill="none" stroke="#45413c" stroke-linecap="round" stroke-linejoin="round" stroke-width="1"></path><path d="M171.98 194.224a5 5 0 1 0 10 0 5 5 0 1 0 -10 0Z" fill="#ffbe3d" stroke-width="1"></path><path d="M170.16 125.224a16.1 16.1 0 0 0 -2.18 8 15.396 15.396 0 0 0 0.552 4" fill="none" stroke="#45413c" stroke-linecap="round" stroke-linejoin="round" stroke-width="1"></path><path d="M188 179.232a6.52 6.52 0 0 0 -12.032 0" fill="none" stroke="#45413c" stroke-linecap="round" stroke-linejoin="round" stroke-width="1"></path><path d="M240 177.224v-10a40 40 0 0 0 -80 0v10a8 8 0 1 0 0 16c0.168 0 0.324 -0.036 0.488 -0.048a39.948 39.948 0 0 0 79.02 0c0.168 0 0.324 0.048 0.492 0.048a8 8 0 0 0 0 -16Z" fill="#ffdb94" stroke="#45413c" stroke-linecap="round" stroke-linejoin="round" stroke-width="1"></path><path d="M171.98 194.224a5 5 0 1 0 10 0 5 5 0 1 0 -10 0Z" fill="#ffbe3d" stroke-width="1"></path><path d="M217.98 194.224a5 5 0 1 0 10 0 5 5 0 1 0 -10 0Z" fill="#ffbe3d" stroke-width="1"></path><path d="M187.944 204.4a17.452 17.452 0 0 0 24.056 0" fill="none" stroke="#45413c" stroke-linecap="round" stroke-linejoin="round" stroke-width="1"></path><path d="M242.856 147.74a25.404 25.404 0 0 0 -12.216 -20.824c-3.944 -9.076 -16.176 -15.692 -30.66 -15.692s-26.716 6.616 -30.664 15.692a25.412 25.412 0 0 0 -12.212 20.824l-0.964 26.956a4.372 4.372 0 0 0 4.372 4.528 4 4 0 0 0 3.96 -3.432L166 165.2a16.264 16.264 0 0 1 15.6 -13.952 44.328 44.328 0 0 0 36.768 0 16.256 16.256 0 0 1 15.6 13.952l1.516 10.608a4 4 0 0 0 3.96 3.432 4.372 4.372 0 0 0 4.372 -4.528Z" fill="#614b44" stroke-width="1"></path><path d="m243.092 154.32 -0.236 -6.58a25.4 25.4 0 0 0 -12.216 -20.824c-3.944 -9.076 -16.18 -15.692 -30.66 -15.692s-26.716 6.616 -30.66 15.692a25.4 25.4 0 0 0 -12.216 20.824l-0.244 6.8a28.304 28.304 0 0 1 11.6 -15.084 3.856 3.856 0 0 0 1.308 -1.48c4.352 -8.596 16.24 -14.764 30.224 -14.764s25.868 6.168 30.224 14.764a3.824 3.824 0 0 0 1.308 1.48 28.552 28.552 0 0 1 11.568 14.864Z" fill="#947063" stroke-width="1"></path><path d="M242.856 147.74a25.404 25.404 0 0 0 -12.216 -20.824c-3.944 -9.076 -16.176 -15.692 -30.66 -15.692s-26.716 6.616 -30.664 15.692a25.412 25.412 0 0 0 -12.212 20.824l-0.964 26.956a4.372 4.372 0 0 0 4.372 4.528 4 4 0 0 0 3.96 -3.432L166 165.2a16.264 16.264 0 0 1 15.6 -13.952 44.328 44.328 0 0 0 36.768 0 16.256 16.256 0 0 1 15.6 13.952l1.516 10.608a4 4 0 0 0 3.96 3.432 4.372 4.372 0 0 0 4.372 -4.528Z" fill="none" stroke="#45413c" stroke-linecap="round" stroke-linejoin="round" stroke-width="1"></path><path d="M169.316 126.916a15.284 15.284 0 0 0 -0.8 10.308" fill="none" stroke="#45413c" stroke-linecap="round" stroke-linejoin="round" stroke-width="1"></path><path d="M230.644 126.916a15.284 15.284 0 0 1 0.8 10.308" fill="none" stroke="#45413c" stroke-linecap="round" stroke-linejoin="round" stroke-width="1"></path><path d="M218.364 151.232a30.632 30.632 0 0 0 6.3 -4" fill="none" stroke="#45413c" stroke-linecap="round" stroke-linejoin="round" stroke-width="1"></path><path d="M181.6 151.232a30.524 30.524 0 0 1 -6.3 -4" fill="none" stroke="#45413c" stroke-linecap="round" stroke-linejoin="round" stroke-width="1"></path><path d="M165.98 179.224a16 16 0 1 0 32 0 16 16 0 1 0 -32 0Z" fill="#00b8f0" stroke-width="1"></path><path d="M190.432 165.64a16 16 0 0 0 -17.436 26.828l17.408 -26.8Z" fill="#4acfff" stroke-width="1"></path><path d="M201.98 179.224a16 16 0 1 0 32 0 16 16 0 1 0 -32 0Z" fill="#00b8f0" stroke-width="1"></path><path d="M226.444 165.648a16 16 0 0 0 -17.448 26.8l17.408 -26.8Z" fill="#4acfff" stroke-width="1"></path><path d="M224 179.22a6.52 6.52 0 0 0 -12.032 0" fill="none" stroke="#45413c" stroke-linecap="round" stroke-linejoin="round" stroke-width="1"></path><path d="M175.944 179.22a6.524 6.524 0 0 1 12.036 0" fill="none" stroke="#45413c" stroke-linecap="round" stroke-linejoin="round" stroke-width="1"></path><path d="M165.98 179.224a16 16 0 1 0 32 0 16 16 0 1 0 -32 0Z" fill="none" stroke="#45413c" stroke-linecap="round" stroke-linejoin="round" stroke-width="1"></path><path d="M201.98 179.224a16 16 0 1 0 32 0 16 16 0 1 0 -32 0Z" fill="none" stroke="#45413c" stroke-linecap="round" stroke-linejoin="round" stroke-width="1"></path><path d="m126.4 46.204 -20.436 13.64a4.048 4.048 0 0 0 -1.328 1.488l24 16 24 -16a4 4 0 0 0 -1.324 -1.484l-20.44 -13.644a4 4 0 0 0 -4.472 0Z" fill="#ff6242" stroke-width="1"></path><path d="M153.06 63.164a4 4 0 0 0 -0.448 -1.832l-24 16v23.668a4 4 0 0 0 2.216 -0.672l20.444 -13.648a4 4 0 0 0 1.772 -3.316Z" fill="#ffe500" stroke-width="1"></path><path d="M104.196 63.172v20.184a4 4 0 0 0 1.776 3.328l20.428 13.644a4 4 0 0 0 2.22 0.672v-23.656l-24 -16a3.972 3.972 0 0 0 -0.424 1.828Z" fill="#4acfff" stroke-width="1"></path><path d="M130.848 46.204a4 4 0 0 0 -4.44 0l-20.436 13.64a4 4 0 0 0 -1.776 3.328v20.184a4 4 0 0 0 1.776 3.328l20.428 13.644a4 4 0 0 0 4.44 0l20.436 -13.644a4 4 0 0 0 1.776 -3.328v-20.184a4 4 0 0 0 -1.776 -3.328Z" fill="none" stroke="#45413c" stroke-linecap="round" stroke-linejoin="round" stroke-width="1"></path><path d="m104.644 61.332 23.984 16.012 23.984 -16.012" fill="none" stroke="#45413c" stroke-linecap="round" stroke-linejoin="round" stroke-width="1"></path><path d="m128.628 77.344 0 23.656" fill="none" stroke="#45413c" stroke-linecap="round" stroke-linejoin="round" stroke-width="1"></path><path d="M83.78 153.164 63.348 166.8a3.952 3.952 0 0 0 -1.328 1.488l24 16 24 -16a4 4 0 0 0 -1.324 -1.484l-20.44 -13.648a4 4 0 0 0 -4.476 0.008Z" fill="#ff6242" stroke-width="1"></path><path d="M110.436 170.128a3.976 3.976 0 0 0 -0.448 -1.832l-24 16v23.656a4.024 4.024 0 0 0 2.216 -0.672l20.44 -13.648a4 4 0 0 0 1.776 -3.316Z" fill="#ffe500" stroke-width="1"></path><path d="M61.568 170.136v20.184a4 4 0 0 0 1.78 3.328l20.432 13.64a4 4 0 0 0 2.224 0.676v-23.656l-24 -16a3.972 3.972 0 0 0 -0.436 1.828Z" fill="#4acfff" stroke-width="1"></path><path d="M88.224 153.164a4 4 0 0 0 -4.444 0L63.348 166.8a4 4 0 0 0 -1.78 3.324v20.196a4 4 0 0 0 1.78 3.328l20.432 13.64a4 4 0 0 0 4.444 0l20.432 -13.64a4 4 0 0 0 1.78 -3.328v-20.188a4 4 0 0 0 -1.78 -3.324Z" fill="none" stroke="#45413c" stroke-linecap="round" stroke-linejoin="round" stroke-width="1"></path><path d="m62.02 168.296 23.984 16.012 23.984 -16.012" fill="none" stroke="#45413c" stroke-linecap="round" stroke-linejoin="round" stroke-width="1"></path><path d="m86.004 184.308 0 23.652" fill="none" stroke="#45413c" stroke-linecap="round" stroke-linejoin="round" stroke-width="1"></path><path d="m312.828 149.368 -20.428 13.64a4.028 4.028 0 0 0 -1.332 1.488l24 16 24 -16a3.964 3.964 0 0 0 -1.324 -1.484l-20.44 -13.644a4 4 0 0 0 -4.476 0Z" fill="#ff6242" stroke-width="1"></path><path d="M339.484 166.328a4 4 0 0 0 -0.452 -1.832l-24 16v23.656a4 4 0 0 0 2.216 -0.672l20.444 -13.648a4 4 0 0 0 1.776 -3.316Z" fill="#ffe500" stroke-width="1"></path><path d="M290.616 166.336v20.184a4 4 0 0 0 1.78 3.328l20.432 13.64a3.976 3.976 0 0 0 2.22 0.676v-23.656l-24 -16a4 4 0 0 0 -0.432 1.828Z" fill="#4acfff" stroke-width="1"></path><path d="M317.272 149.368a4 4 0 0 0 -4.444 0l-20.428 13.64a4 4 0 0 0 -1.78 3.328v20.184a4 4 0 0 0 1.78 3.328l20.432 13.64a4 4 0 0 0 4.444 0l20.432 -13.64a4 4 0 0 0 1.78 -3.328v-20.184a4 4 0 0 0 -1.78 -3.328Z" fill="none" stroke="#45413c" stroke-linecap="round" stroke-linejoin="round" stroke-width="1"></path><path d="m291.064 164.496 23.984 16.012 23.984 -16.012" fill="none" stroke="#45413c" stroke-linecap="round" stroke-linejoin="round" stroke-width="1"></path><path d="m315.048 180.508 0 23.656" fill="none" stroke="#45413c" stroke-linecap="round" stroke-linejoin="round" stroke-width="1"></path><path d="M221.752 42.328v29.064a4 4 0 0 0 1.78 3.328l29.304 19.564a4 4 0 0 0 2.22 0.672V62.4l-32.856 -21.912a4 4 0 0 0 -0.448 1.84Z" fill="#4acfff" stroke-width="1"></path><path d="M288.356 42.32a4 4 0 0 0 -0.448 -1.832L255.056 62.4v32.54a4 4 0 0 0 2.212 -0.668l29.316 -19.572a4 4 0 0 0 1.772 -3.316Z" fill="#ffe500" stroke-width="1"></path><path d="m255.056 62.4 32.852 -21.928a4 4 0 0 0 -1.316 -1.48l-29.316 -19.556a4 4 0 0 0 -4.44 0L223.532 39a4 4 0 0 0 -1.332 1.488Z" fill="#ff6242" stroke-width="1"></path><path d="m222.2 40.488 32.856 21.932 32.852 -21.932" fill="none" stroke="#45413c" stroke-linecap="round" stroke-linejoin="round" stroke-width="1"></path><path d="m255.056 62.42 0 32.536" fill="none" stroke="#45413c" stroke-linecap="round" stroke-linejoin="round" stroke-width="1"></path><path d="M257.276 19.436a4 4 0 0 0 -4.44 0L223.532 39a4 4 0 0 0 -1.78 3.328v29.064a4 4 0 0 0 1.78 3.328l29.304 19.564a4 4 0 0 0 4.44 0l29.304 -19.564a4 4 0 0 0 1.776 -3.328v-29.064a4 4 0 0 0 -1.776 -3.328Z" fill="none" stroke="#45413c" stroke-linecap="round" stroke-linejoin="round" stroke-width="1"></path></svg>