<svg xmlns="http://www.w3.org/2000/svg" viewBox="0 0 400 400" id="Coding-Books--Streamline-Ux.svg" height="400" width="400"><desc>Coding Books Streamline Illustration: https://streamlinehq.com</desc><path stroke="#daedf7" stroke-miterlimit="10" fill="#daedf7" d="M6.4196 200C6.4196 349.018 167.7368 442.1544 296.79 367.6456C356.684 333.0656 393.5804 269.1596 393.5804 200C393.5804 50.982 232.2632 -42.1544 103.21 32.3548C43.316 66.9344 6.4196 130.8404 6.4196 200" stroke-width="1"></path><path fill="#adc4d9" d="M145.9232 251.7392H189.9628V278.1628H145.9232Z" stroke-width="1"></path><path fill="#adc4d9" d="M145.9232 251.7392H189.9628V264.9512H145.9232Z" stroke-width="1"></path><path stroke-linecap="round" stroke="#45413c" stroke-linejoin="round" fill="none" d="M145.9232 251.7392H189.9628V278.1628H145.9232Z" stroke-width="1"></path><path d="M225.1896 295.7788H110.6916C110.6916 286.0496 118.5784 278.1624 128.3076 278.1628H207.574C217.3024 278.1632 225.1896 286.05 225.1896 295.7788Z" stroke-linecap="round" stroke="#45413c" stroke-linejoin="round" fill="#daedf7" stroke-width="1"></path><path d="M286.84 49.1672H49.0412C36.8812 49.17 27.0244 59.0268 27.0216 71.1868V216.5124H308.86V71.1868C308.8572 59.0268 299 49.17 286.84 49.1672Z" fill="#00b8f0" stroke-width="1"></path><path d="M196.6124 49.1672H49.0076C36.8472 49.17 26.9904 59.0268 26.9876 71.1868V218.7916Z" fill="#4acfff" stroke-width="1"></path><path d="M286.84 49.1672H49.0412C36.8812 49.17 27.0244 59.0268 27.0216 71.1868V216.5124H308.86V71.1868C308.8572 59.0268 299 49.17 286.84 49.1672Z" stroke-linecap="round" stroke="#45413c" stroke-linejoin="round" fill="none" stroke-width="1"></path><path d="M286.84 251.7392C299.0012 251.7392 308.86 241.8804 308.86 229.7196V216.5124H27.0216V229.7196C27.0216 241.8804 36.88 251.7392 49.0412 251.7392Z" fill="#ffffff" stroke-linecap="round" stroke="#45413c" stroke-linejoin="round" stroke-width="1"></path><path d="M114.268 171.8728C111.9048 171.8728 109.622 171.0124 107.846 169.4532L74.3904 140.1788C69.952 136.2848 69.952 129.3752 74.3904 125.4812L107.846 96.2072C113.5032 91.2596 122.3948 94.2916 123.8508 101.6644C124.5264 105.0864 123.3252 108.6084 120.7 110.9048L95.6408 132.8324L120.7 154.7556C126.3552 159.7032 124.5332 168.918 117.4208 171.3416C116.4056 171.6872 115.3404 171.8636 114.268 171.8632ZM221.618 171.8728C214.104 171.8796 209.4 163.7496 213.1512 157.2388C213.6872 156.308 214.3732 155.4724 215.1816 154.7652L240.25 132.842L215.1816 110.9144C209.6212 105.8544 211.624 96.6728 218.7864 94.3876C221.9804 93.3684 225.474 94.0592 228.04 96.2168L261.4956 125.4716C265.9344 129.3656 265.9344 136.2752 261.4956 140.1692L228.04 169.4628C226.262 171.0176 223.98 171.874 221.618 171.8728ZM149.1128 176.7704C141.6252 176.7604 136.936 168.672 140.6484 162.1696L179.674 93.8456C183.5348 87.4032 192.922 87.5564 196.5704 94.1212C198.1936 97.0416 198.2096 100.5896 196.6124 103.5244L157.5916 171.834C155.8604 174.8864 152.6216 176.772 149.1128 176.7704Z" fill="#b8ecff" stroke="#45413c" stroke-linejoin="round" stroke-width="1"></path><path fill="#45413c" stroke-linecap="round" stroke="#45413c" stroke-linejoin="round" d="M164.2748 234.1232C164.2656 236.9472 167.3164 238.7224 169.7668 237.3184C170.9116 236.6624 171.616 235.4428 171.6116 234.1232C171.6208 231.2996 168.5696 229.5244 166.1196 230.9284C164.9748 231.584 164.2704 232.804 164.2748 234.1232" stroke-width="1"></path><path opacity=".15" fill="#45413c" d="M213.4296 347.0388C213.4296 355.3316 285.252 360.5148 342.7096 356.3684C369.376 354.444 385.8032 350.8876 385.8032 347.0388C385.8032 338.746 313.9808 333.5628 256.5228 337.7092C229.8568 339.6336 213.4296 343.19 213.4296 347.0388" stroke-width="1"></path><path fill="#00dfeb" stroke-linecap="round" stroke="#45413c" stroke-linejoin="round" d="M219.7984 202.9764H249.4356S251.8552 202.9764 251.8552 205.396V338.4584S251.8552 340.878 249.4356 340.878H219.7984S217.3788 340.878 217.3788 338.4584V205.396S217.3788 202.9764 219.7984 202.9764" stroke-width="1"></path><path fill="#6dd627" stroke-linecap="round" stroke="#45413c" stroke-linejoin="round" d="M254.2752 220.2096H283.912S286.332 220.2096 286.332 222.6296V338.4536S286.332 340.8732 283.912 340.8732H254.2752S251.8552 340.8732 251.8552 338.4536V222.6296S251.8552 220.2096 254.2752 220.2096" stroke-width="1"></path><path fill="#ffe500" stroke-linecap="round" stroke="#45413c" stroke-linejoin="round" d="M288.7516 202.9764H318.3888S320.8084 202.9764 320.8084 205.396V338.4584S320.8084 340.878 318.3888 340.878H288.7516S286.332 340.878 286.332 338.4584V205.396S286.332 202.9764 288.7516 202.9764" stroke-width="1"></path><path fill="#a6fbff" stroke-linecap="round" stroke="#45413c" stroke-linejoin="round" d="M217.3788 228.8288H251.8552V246.0672H217.3788Z" stroke-width="1"></path><path fill="#c8ffa1" stroke-linecap="round" stroke="#45413c" stroke-linejoin="round" d="M251.8552 246.0672H286.332V263.3056H251.8552Z" stroke-width="1"></path><path fill="#fff48c" stroke-linecap="round" stroke="#45413c" stroke-linejoin="round" d="M286.332 228.8288H320.8084V246.0672H286.332Z" stroke-width="1"></path><path fill="#ff6242" stroke-linecap="round" stroke="#45413c" stroke-linejoin="round" d="M322.41 207.1556L351.1948 200.0996S353.5452 199.5236 354.1212 201.8736L385.8 331.11S386.376 333.46 384.026 334.036L355.2412 341.092S352.8908 341.668 352.3148 339.318L320.636 210.0816S320.0596 207.7316 322.41 207.1556" stroke-width="1"></path><path fill="#ffa694" stroke-linecap="round" stroke="#45413c" stroke-linejoin="round" d="M326.2144 232.8408L359.6988 224.6332L363.8028 241.3776L330.3136 249.5856Z" stroke-width="1"></path></svg>